 <svg viewBox="0 0 25 25" xmlns="http://www.w3.org/2000/svg" width="25" height="25">
        <path d="M15.5712 2.25179L21.8263 6.87554C23.0263 7.74774 23.7404 9.13833 23.75 10.6218V18.9918C23.6825 21.6842 21.4475 23.8134 18.755 23.7505H6.245C3.55248 23.8134 1.31753 21.6842 1.25 18.9918V10.633C1.25687 9.14314 1.97612 7.74644 3.185 6.87554L9.42875 2.25179C11.2584 0.91607 13.7416 0.91607 15.5712 2.25179ZM18.755 22.063C20.5157 22.1264 21.9954 20.7524 22.0625 18.9918V10.6218C22.0567 9.67156 21.5914 8.78289 20.8137 8.23679L14.57 3.61304C13.3369 2.71256 11.6631 2.71256 10.43 3.61304L4.18625 8.22554C3.40794 8.78129 2.9435 9.67669 2.9375 10.633V18.9918C3.01065 20.7496 4.4866 22.1201 6.245 22.063H18.755Z" fill="#000"/>
        <path d="M17.5625 16.7193H7.4375C6.97151 16.7193 6.59375 17.0971 6.59375 17.563C6.59375 18.029 6.97151 18.4068 7.4375 18.4068H17.5625C18.0285 18.4068 18.4062 18.029 18.4062 17.563C18.4062 17.0971 18.0285 16.7193 17.5625 16.7193Z" fill="#000" stroke="#000" strokeWidth="0.5"/>
    </svg>